<?xml version="1.0" encoding="utf-8"?>
<!-- Generator: Adobe Illustrator 22.0.1, SVG Export Plug-In . SVG Version: 6.00 Build 0)  -->
<svg version="1.1" id="emoji" xmlns="http://www.w3.org/2000/svg" xmlns:xlink="http://www.w3.org/1999/xlink" x="0px" y="0px"
	 viewBox="0 0 72 72" style="enable-background:new 0 0 72 72;" xml:space="preserve">
<style type="text/css">
	.st0{fill:#B1CC33;}
	.st1{fill:#5C9E31;}
	.st2{fill:none;stroke:#000000;stroke-width:3.0989;stroke-linecap:round;stroke-linejoin:round;stroke-miterlimit:10;}
</style>
<g id="color">
	<path class="st0" d="M16.4,50.5v-3.2v-8c0,0-16.7-6.3-13.3-18.5s18.2-12.2,22.6-9.2c10.1,6.5,7.4,27.3,7.4,27.3l0.5,3.8"/>
	<path class="st1" d="M27.5,66c-4.8-5-10-17.3-10-17.3l16.5-8.3c0,0,6,8.2,9,10.1L27.5,66z"/>
	<path class="st1" d="M50.7,66c0,0,13.9-1.5,15.5-7.7s-10.8-6.2-12.4-6.2"/>
	<path class="st0" d="M27.5,62.9l13.4-12.5c0,0,11.4,0.3,14.5,0.1L50.7,66L27.5,62.9z"/>
</g>
<g id="hair">
</g>
<g id="skin">
</g>
<g id="skin-shadow">
</g>
<g id="line">
	<line class="st2" x1="12" y1="9.6" x2="10.4" y2="4"/>
	<line class="st2" x1="19" y1="9" x2="21.3" y2="2.5"/>
	<path class="st2" d="M35.2,64.4"/>
	<line class="st2" x1="68.3" y1="53.8" x2="67.2" y2="54.9"/>
	<path class="st2" d="M16.6,45.9v-7.4c0,0-15.5-5.8-12.4-17s11.1-13.6,21-8.5s6.8,25.2,6.8,25.2"/>
	<path class="st2" d="M17.4,49.3c0,0,1.7,7,6.6,11.3l-1.2,2.2"/>
	<path class="st2" d="M34,41.4c0,0,1.4,4.7,4.4,6.4"/>
	<line class="st2" x1="17.4" y1="50.2" x2="15.1" y2="51.7"/>
	<line class="st2" x1="20" y1="56.2" x2="18" y2="58"/>
	<path class="st2" d="M43.4,67.3"/>
	<path class="st2" d="M42.4,50.3c0,0,4.7,1.3,7.8,1.1"/>
	<path class="st2" d="M35.2,64.4"/>
	<path class="st2" d="M27.5,66.8l1.4-3.2c0,0,2.2,0.9,6.2,1.6c2.9,0.5,6.7,0.8,11.3,0.5l0.2,3.1"/>
	<line class="st2" x1="41.8" y1="67.4" x2="41.9" y2="69"/>
	<line class="st2" x1="37" y1="66.2" x2="37.1" y2="69.3"/>
	<line class="st2" x1="32.6" y1="64.9" x2="32.3" y2="68"/>
	<path class="st2" d="M52.2,66c0,0,12.4-1.5,13.9-7.7s-9.3-6.2-10.8-6.2"/>
	<line class="st2" x1="54" y1="66" x2="54.2" y2="68"/>
	<line class="st2" x1="60" y1="64.5" x2="60.5" y2="66.4"/>
	<line class="st2" x1="64.3" y1="61.6" x2="65.5" y2="63.1"/>
</g>
</svg>
