<?xml version="1.0" encoding="utf-8"?>
<!-- Generator: Adobe Illustrator 22.0.1, SVG Export Plug-In . SVG Version: 6.00 Build 0)  -->
<svg version="1.1" id="emoji" xmlns="http://www.w3.org/2000/svg" xmlns:xlink="http://www.w3.org/1999/xlink" x="0px" y="0px"
	 viewBox="0 0 72 72" style="enable-background:new 0 0 72 72;" xml:space="preserve">
<style type="text/css">
	.st0{fill:#D0CFCE;}
	.st1{fill:#9B9B9A;}
	.st2{fill:#FFFFFF;}
	.st3{fill:none;stroke:#000000;stroke-width:2.1574;stroke-linecap:round;stroke-linejoin:round;stroke-miterlimit:10;}
	.st4{fill:none;stroke:#000000;stroke-width:0.991;stroke-linecap:round;stroke-linejoin:round;stroke-miterlimit:10;}
</style>
<g id="color">
	<path class="st0" d="M44.8,62.6c0,5.3,8.5,7.6,8.5,7.6H36.4H36H19.2c0,0,8.5-2.2,8.5-7.6v-5.3h17L44.8,62.6z"/>
	<path class="st1" d="M65.3,57.3H7.1c-3,0-5.5-2.5-5.5-5.5V14.2c0-3,2.5-5.5,5.5-5.5h58.2c3,0,5.5,2.5,5.5,5.5v37.6
		C70.8,54.8,68.3,57.3,65.3,57.3z"/>
	<path class="st2" d="M70,47.3L1.7,23V12.8c0-2,2-3.4,3.8-2.7L70,33V47.3z"/>
	<path class="st0" d="M70.8,48.2c0,0,0.2,5.2-1.7,7.4s-0.8,1.7-3.8,1.7H7.1c-3,0-4.5-2-4.5-2.6l-1-6.5"/>
</g>
<g id="hair">
</g>
<g id="skin">
</g>
<g id="skin-shadow">
</g>
<g id="line">
	<path class="st3" d="M65.3,57.3H7.1c-3,0-5.5-2.5-5.5-5.5V14.2c0-3,2.5-5.5,5.5-5.5h58.2c3,0,5.5,2.5,5.5,5.5v37.6
		C70.8,54.8,68.3,57.3,65.3,57.3z"/>
	<path class="st4" d="M70.8,48.2c0,0,0.2,5.2-1.7,7.4s-0.8,1.7-3.8,1.7H7.1c-3,0-4.5-2-4.5-2.6l-1-6.5"/>
	<path class="st3" d="M65.3,57.3H7.1c-3,0-5.5-2.5-5.5-5.5V14.2c0-3,2.5-5.5,5.5-5.5h58.2c3,0,5.5,2.5,5.5,5.5v37.6
		C70.8,54.8,68.3,57.3,65.3,57.3z"/>
	<line class="st3" x1="4.9" y1="49.2" x2="67.5" y2="49.2"/>
	<path class="st3" d="M43.7,62.6c0,5.3,9.5,7.6,9.5,7.6H36.4H36H19.2c0,0,9.5-2.2,9.5-7.6"/>
</g>
</svg>
