<?xml version="1.0" encoding="utf-8"?>
<!-- Generator: Adobe Illustrator 22.0.1, SVG Export Plug-In . SVG Version: 6.00 Build 0)  -->
<svg version="1.1" id="emoji" xmlns="http://www.w3.org/2000/svg" xmlns:xlink="http://www.w3.org/1999/xlink" x="0px" y="0px"
	 viewBox="0 0 72 72" style="enable-background:new 0 0 72 72;" xml:space="preserve">
<style type="text/css">
	.st0{fill:#D22F27;}
	.st1{fill:#FCEA2B;}
	.st2{fill:#FF6969;}
	.st3{fill:none;stroke:#000000;stroke-width:3.2409;stroke-linejoin:round;}
	.st4{fill:none;stroke:#000000;stroke-width:2.587;stroke-linecap:round;stroke-linejoin:round;}
</style>
<g id="color">
	<path class="st0" d="M3.7,58.1l24.2-43.8c0.5-0.8,1.4-1,2.2-0.6l15.5,8.9c0.8,0.5,1,1.4,0.6,2.2L21.8,68.6c-0.5,0.8-1.4,1-2.2,0.6
		c-6.7-1.1-11.9-4.1-15.5-8.9C3.5,59.9,3.1,58.9,3.7,58.1z"/>
	<g>
		<g>
			<g>
				<path class="st1" d="M61.4,16c-0.7,0-1.3-0.3-1.7-0.9c-0.3-0.5-0.4-1-0.3-1.5c0.1-0.5,0.4-1,0.9-1.3l6.3-4.1
					c0.3-0.2,0.7-0.3,1.1-0.3c0.7,0,1.3,0.3,1.7,0.9c0.3,0.5,0.4,1,0.3,1.5c-0.1,0.5-0.4,1-0.9,1.3l-6.3,4.1
					C62.2,15.9,61.8,16,61.4,16z"/>
				<path d="M67.7,8.4L67.7,8.4c0.5,0,1,0.2,1.2,0.7c0.2,0.3,0.3,0.7,0.2,1.1c-0.1,0.4-0.3,0.7-0.6,0.9l-6.3,4.1
					c-0.2,0.2-0.5,0.2-0.8,0.2c-0.5,0-1-0.2-1.2-0.7c-0.2-0.3-0.3-0.7-0.2-1.1c0.1-0.4,0.3-0.7,0.6-0.9l6.3-4.1
					C67.2,8.5,67.4,8.4,67.7,8.4 M67.7,7.3c-0.5,0-1,0.1-1.4,0.4L60,11.8c-1.2,0.8-1.6,2.4-0.8,3.6c0.5,0.8,1.3,1.2,2.2,1.2
					c0.5,0,1-0.1,1.4-0.4l6.3-4.1c1.2-0.8,1.6-2.4,0.8-3.6C69.4,7.7,68.6,7.3,67.7,7.3L67.7,7.3z"/>
			</g>
		</g>
		<g>
			<g>
				<path class="st1" d="M54.9,14.4c-0.8,0-1.5-0.5-1.8-1.2l-3.4-7c-0.5-1-0.1-2.2,1-2.7c0.3-0.1,0.6-0.2,0.9-0.2
					c0.8,0,1.5,0.5,1.8,1.2l3.4,7c0.5,1,0.1,2.2-1,2.7C55.5,14.4,55.2,14.4,54.9,14.4z"/>
				<path d="M51.5,3.9L51.5,3.9c0.6,0,1.1,0.3,1.3,0.8l3.4,7c0.3,0.7,0,1.6-0.7,2c-0.2,0.1-0.4,0.1-0.6,0.1c-0.6,0-1.1-0.3-1.3-0.8
					l-3.4-7c-0.3-0.7,0-1.6,0.7-1.9C51.1,4,51.3,3.9,51.5,3.9 M51.5,2.8c-0.4,0-0.8,0.1-1.1,0.3c-1.3,0.6-1.9,2.2-1.2,3.5l3.4,7
					c0.5,0.9,1.4,1.5,2.4,1.5c0.4,0,0.8-0.1,1.1-0.3c1.3-0.6,1.9-2.2,1.2-3.5l-3.4-7C53.4,3.3,52.5,2.8,51.5,2.8L51.5,2.8z"/>
			</g>
		</g>
		<g>
			<g>
				<path class="st1" d="M58.7,12.7c-0.2,0-0.4,0-0.5-0.1c-0.5-0.1-1-0.5-1.2-1c-0.3-0.5-0.3-1-0.2-1.6l2-7.4c0.2-0.9,1.1-1.5,2-1.5
					c0.2,0,0.4,0,0.5,0.1c0.5,0.1,1,0.5,1.2,1c0.3,0.5,0.3,1,0.2,1.6l-2,7.4C60.5,12.1,59.7,12.7,58.7,12.7z"/>
				<path d="M60.7,1.8L60.7,1.8c0.1,0,0.3,0,0.4,0.1c0.4,0.1,0.7,0.3,0.9,0.7c0.2,0.3,0.2,0.7,0.1,1.1l-2,7.4
					c-0.2,0.6-0.8,1.1-1.4,1.1c-0.1,0-0.3,0-0.4-0.1c-0.4-0.1-0.7-0.3-0.9-0.7c-0.2-0.3-0.2-0.7-0.1-1.1l2-7.4
					C59.5,2.2,60.1,1.8,60.7,1.8 M60.7,0.6c-1.2,0-2.2,0.8-2.5,1.9l-2,7.4c-0.4,1.4,0.4,2.8,1.8,3.2c0.2,0.1,0.5,0.1,0.7,0.1
					c1.2,0,2.2-0.8,2.5-1.9l2-7.4c0.4-1.4-0.4-2.8-1.8-3.2C61.2,0.6,61,0.6,60.7,0.6L60.7,0.6z"/>
			</g>
		</g>
	</g>
</g>
<path class="st2" d="M46.8,25.6c-0.5,0.9-0.1,0.3-1-0.1c-6.9,0.5-15.6-2-18.6-10c-0.9-0.5-0.7-0.4-0.3-1.3c0.5-0.9,1-1.4,1.9-1.1
	c6.4,1.9,12.7,4.6,17.9,10.2C47.6,23.9,47.2,24.7,46.8,25.6z"/>
<g id="line">
	<path class="st3" d="M3.7,58.1l24.2-43.8c0.5-0.8,1.4-1,2.2-0.6c5.1-0.5,13.5,5.1,15.5,8.9c0.8,0.5,1,1.4,0.6,2.2L21.8,68.6
		c-0.5,0.8-1.4,1-2.2,0.6c-6.8-0.7-12.2-3.4-15.5-8.9C3.5,59.9,3.1,58.9,3.7,58.1z"/>
	<path class="st4" d="M57.9,13.6c0,0-1.9,8.2-6.1,6.6c-4.3-1.5-1.3-6.9-5.4-8.3s-7.5,4.3-7.5,4.3"/>
</g>
</svg>
