<?xml version="1.0" encoding="utf-8"?>
<!-- Generator: Adobe Illustrator 22.0.1, SVG Export Plug-In . SVG Version: 6.00 Build 0)  -->
<svg version="1.1" id="emoji" xmlns="http://www.w3.org/2000/svg" xmlns:xlink="http://www.w3.org/1999/xlink" x="0px" y="0px"
	 viewBox="0 0 50 72" style="enable-background:new 0 0 50 72;" xml:space="preserve">
<style type="text/css">
	.st0{fill:#00D632;}
	.st1{fill:none;stroke:#000000;stroke-width:2.4304;stroke-miterlimit:10;}
</style>
<g id="color">
	<path id="_1F4B2" class="st0" d="M24.4,32.4c-2.1,0-9.1-0.5-9.1-6.7s6.9-6.7,9.1-6.7c10.3,0,10.3,4.9,10.3,6.7
		c0,2.3,1.9,4.3,4.3,4.3c2.3,0,4.3-1.9,4.3-4.3c0-8.2-5.1-13.3-14-14.8V7.5c0-2.6-2.1-4.9-4.9-4.9c-2.6,0-4.9,2.1-4.9,4.9V11
		c-7.8,1.6-12.7,7-12.7,14.7c0,9.1,7,15.2,17.6,15.2c3.5,0,10.3,1.4,10.3,6.7s-6.8,6.7-10.3,6.7c-2.1,0-9.1-0.5-9.1-6.7
		c0-2.3-1.9-4.3-4.3-4.3s-4.3,1.9-4.3,4.3c0,7.7,5,13.1,12.7,14.7v2.3c0,2.6,2.1,4.9,4.9,4.9c2.6,0,4.9-2.1,4.9-4.9v-2.3
		c7.5-1.5,14-6.4,14-14.7C43.2,37.6,33.8,32.4,24.4,32.4z"/>
</g>
<g id="line">
	<path id="_1F4B2-2" class="st1" d="M24.4,32.4c-2.1,0-9.1-0.5-9.1-6.7s6.9-6.7,9.1-6.7c10.3,0,10.3,4.9,10.3,6.7
		c0,2.3,1.9,4.3,4.3,4.3c2.3,0,4.3-1.9,4.3-4.3c0-8.2-5.1-13.3-14-14.8V7.5c0-2.6-2.1-4.9-4.9-4.9c-2.6,0-4.9,2.1-4.9,4.9V11
		c-7.8,1.6-12.7,7-12.7,14.7c0,9.1,7,15.2,17.6,15.2c3.5,0,10.3,1.4,10.3,6.7s-6.8,6.7-10.3,6.7c-2.1,0-9.1-0.5-9.1-6.7
		c0-2.3-1.9-4.3-4.3-4.3s-4.3,1.9-4.3,4.3c0,7.7,5,13.1,12.7,14.7v2.3c0,2.6,2.1,4.9,4.9,4.9c2.6,0,4.9-2.1,4.9-4.9v-2.3
		c7.5-1.5,14-6.4,14-14.7C43.2,37.6,33.8,32.4,24.4,32.4z"/>
</g>
</svg>
