<?xml version="1.0" encoding="utf-8"?>
<!-- Generator: Adobe Illustrator 22.0.1, SVG Export Plug-In . SVG Version: 6.00 Build 0)  -->
<svg version="1.1" id="emoji" xmlns="http://www.w3.org/2000/svg" xmlns:xlink="http://www.w3.org/1999/xlink" x="0px" y="0px"
	 viewBox="0 0 60 60" style="enable-background:new 0 0 60 60;" xml:space="preserve">
<style type="text/css">
	.st0{fill:#EA5A47;}
	.st1{fill:#D0CFCE;}
	.st2{fill:none;stroke:#000000;stroke-width:2.8056;stroke-linecap:round;stroke-miterlimit:10;}
	.st3{fill:none;stroke:#000000;stroke-width:2.2445;stroke-linecap:round;stroke-linejoin:round;stroke-miterlimit:10;}
</style>
<g id="color">
	<path class="st0" d="M22,14.2h2.3c0.9,0,1.4-0.5,1.4-1.4V6.7c0-0.9,0.5-1.4,1.4-1.4h6c0.9,0,1.4,0.5,1.4,1.4v6.1
		c0,0.9,0.5,1.4,1.4,1.4H38c1.1,0,1.9,1.3,1.1,2.2l-7.9,11.4c-0.5,0.9-1.6,0.9-2.2,0l-8.1-11.4C20.1,15.4,20.9,14.2,22,14.2z"/>
	<path class="st1" d="M58,37v12c0,1.9-1.6,3.5-3.5,3.5H5.3c-1.9,0-3.4-1.5-3.4-3.4V36.8c0-1.9,1.5-3.4,3.4-3.4h6.1
		c1.2,0,2.5,0.6,3.1,1.7c0.6,1,1.6,1.7,2.8,1.7H30h12.7c1.2,0,2.2-0.7,2.8-1.7c0.7-1.1,1.9-1.7,3.1-1.7h5.9C56.5,33.5,58,35.1,58,37
		z"/>
</g>
<g id="hair">
</g>
<g id="skin">
</g>
<g id="skin-shadow">
</g>
<g id="line">
	<path class="st2" d="M22,14.2h2.3c0.9,0,1.4-0.5,1.4-1.4V6.7c0-0.9,0.5-1.4,1.4-1.4h6c0.9,0,1.4,0.5,1.4,1.4v6.1
		c0,0.9,0.5,1.4,1.4,1.4H38c1.1,0,1.9,1.3,1.1,2.2l-7.9,11.4c-0.5,0.9-1.6,0.9-2.2,0l-8.1-11.4C20.1,15.4,20.9,14.2,22,14.2z"/>
	<path class="st3" d="M58,37v12c0,1.9-1.6,3.5-3.5,3.5H5.3c-1.9,0-3.4-1.5-3.4-3.4V36.8c0-1.9,1.5-3.4,3.4-3.4h6.1
		c1.2,0,2.5,0.6,3.1,1.7c0.6,1,1.6,1.7,2.8,1.7H30h12.7c1.2,0,2.2-0.7,2.8-1.7c0.7-1.1,1.9-1.7,3.1-1.7h5.9C56.5,33.5,58,35.1,58,37
		z"/>
</g>
</svg>
