<?xml version="1.0" encoding="utf-8"?>
<!-- Generator: Adobe Illustrator 22.0.1, SVG Export Plug-In . SVG Version: 6.00 Build 0)  -->
<svg version="1.1" id="emoji" xmlns="http://www.w3.org/2000/svg" xmlns:xlink="http://www.w3.org/1999/xlink" x="0px" y="0px"
	 viewBox="0 0 72 72" style="enable-background:new 0 0 72 72;" xml:space="preserve">
<style type="text/css">
	.st0{fill:#EA5A47;}
	.st1{fill:#3F3F3F;}
	.st2{fill:#9B9B9A;stroke:#9B9B9A;stroke-width:2.3528;stroke-linecap:round;stroke-linejoin:round;stroke-miterlimit:10;}
	.st3{fill:#9B9B9A;}
	.st4{fill:#D22F27;}
	.st5{fill:none;stroke:#000000;stroke-width:2.3528;stroke-linecap:round;stroke-linejoin:round;stroke-miterlimit:10;}
	.st6{fill:none;stroke:#000000;stroke-width:2.3528;stroke-miterlimit:10;}
</style>
<g id="color">
	<polyline class="st0" points="13.6,58.6 13.6,55.1 21.9,55.1 21.9,58.6 	"/>
	<circle class="st0" cx="36" cy="13.9" r="11.8"/>
	<path class="st1" d="M25.4,58.6c0-4.5,4.7-8.2,10.6-8.2s10.6,3.7,10.6,8.2"/>
	<rect x="32.5" y="25.7" class="st2" width="7.1" height="24.7"/>
	<rect x="10.1" y="58.6" class="st3" width="51.8" height="11.8"/>
	<polygon class="st4" points="41.9,3.3 33.6,25.7 40.7,24.5 46.6,18.6 47.8,11.6 	"/>
</g>
<g id="hair">
</g>
<g id="skin">
</g>
<g id="skin-shadow">
</g>
<g id="line">
	<rect x="10.1" y="58.6" class="st5" width="51.8" height="11.8"/>
	<path class="st6" d="M25.4,58.6c0-4.5,4.7-8.2,10.6-8.2s10.6,3.7,10.6,8.2"/>
	<polyline class="st5" points="13.6,58.6 13.6,55.1 21.9,55.1 21.9,58.6 	"/>
	<polyline class="st5" points="39.5,46.5 39.5,45.7 39.5,25.7 32.5,25.7 32.5,46.5 	"/>
	<circle class="st6" cx="36" cy="13.9" r="11.8"/>
</g>
</svg>
