<?xml version="1.0" encoding="utf-8"?>
<!-- Generator: Adobe Illustrator 22.0.1, SVG Export Plug-In . SVG Version: 6.00 Build 0)  -->
<svg version="1.1" id="emoji" xmlns="http://www.w3.org/2000/svg" xmlns:xlink="http://www.w3.org/1999/xlink" x="0px" y="0px"
	 viewBox="0 0 72 72" style="enable-background:new 0 0 72 72;" xml:space="preserve">
<style type="text/css">
	.st0{fill:#92D3F5;}
	.st1{fill:#D0CFCE;}
	.st2{fill:#EA5A47;}
	.st3{fill:none;stroke:#000000;stroke-width:3.375;stroke-miterlimit:10;}
	.st4{fill:none;stroke:#000000;stroke-width:2.7;stroke-linecap:round;stroke-linejoin:round;stroke-miterlimit:10;}
	.st5{fill:none;stroke:#000000;stroke-width:2.7;stroke-linecap:round;stroke-miterlimit:10;}
</style>
<g id="color">
	<path class="st0" d="M45.2,23.3h-2.6c-0.9,0-1.6,0.8-1.6,1.6v7.5c0,0.9-0.7,1.6-1.6,1.6H32c-0.9,0-1.6-0.8-1.6-1.6V25
		c0-0.9-0.8-1.6-1.6-1.6h-2.6c-1.4,0-2.1-1.5-1.4-2.6L34.5,7c0.6-1,2.1-1,2.8,0L47,20.7C47.4,21.7,46.5,23.3,45.2,23.3z"/>
	<path class="st1" d="M69.8,44.3v14.5c0,2.3-1.9,4.2-4.2,4.2H6.3c-2.2,0-4-1.8-4-4.1V44.2c0-2.2,1.8-4,4-4h7.3c1.5,0,3,0.7,3.8,2
		c0.7,1.2,1.9,2,3.4,2H36h15.2c1.4,0,2.7-0.8,3.4-2c0.8-1.3,2.2-2,3.8-2h7.2C67.9,40.2,69.8,42,69.8,44.3z"/>
	<path class="st2" d="M15.3,59.5"/>
	<path class="st2" d="M15.3,47.1"/>
</g>
<g id="hair">
</g>
<g id="skin">
</g>
<g id="skin-shadow">
</g>
<g id="line">
	<path class="st3" d="M45.2,23.3h-2.6c-0.9,0-1.6,0.8-1.6,1.6v7.5c0,0.9-0.7,1.6-1.6,1.6H32c-0.9,0-1.6-0.8-1.6-1.6V25
		c0-0.9-0.8-1.6-1.6-1.6h-2.6c-1.4,0-2.1-1.5-1.4-2.6L34.5,7c0.6-1,2.1-1,2.8,0L47,20.7C47.4,21.7,46.5,23.3,45.2,23.3z"/>
	<path class="st4" d="M69.8,44.3v14.5c0,2.3-1.9,4.2-4.2,4.2H6.3c-2.2,0-4-1.8-4-4.1V44.2c0-2.2,1.8-4,4-4h7.3c1.5,0,3,0.7,3.8,2
		c0.7,1.2,1.9,2,3.4,2H36h15.2c1.4,0,2.7-0.8,3.4-2c0.8-1.3,2.2-2,3.8-2h7.2C67.9,40.2,69.8,42,69.8,44.3z"/>
	<path class="st5" d="M15.3,59.5"/>
	<path class="st5" d="M15.3,47.1"/>
</g>
</svg>
