<?xml version="1.0" encoding="utf-8"?>
<!-- Generator: Adobe Illustrator 22.0.1, SVG Export Plug-In . SVG Version: 6.00 Build 0)  -->
<svg version="1.1" id="emoji" xmlns="http://www.w3.org/2000/svg" xmlns:xlink="http://www.w3.org/1999/xlink" x="0px" y="0px"
	 viewBox="0 0 72 72" style="enable-background:new 0 0 72 72;" xml:space="preserve">
<style type="text/css">
	.st0{fill:#FF1F1A;stroke:#000000;stroke-width:2.8688;stroke-miterlimit:10;}
</style>
<g id="hair">
</g>
<g id="skin">
</g>
<g id="skin-shadow">
</g>
<g id="line">
	<g>
		<g>
			<path class="st0" d="M35.1,70.3c-2.8,0-5-2.3-5-5c0-2.8,2.3-5,5-5c2.8,0,5,2.3,5,5C40.2,68.1,37.9,70.3,35.1,70.3z"/>
		</g>
	</g>
	<g>
		<g>
			<path class="st0" d="M35.1,54.8c-2.6,0-4.7-2.1-4.7-4.7c0-1.4-0.1-4.6,0-10.4c0-4.5,3.5-7.9,8.3-12.6c0.9-0.9,1.8-1.8,2.8-2.8
				c1.8-1.8,2.2-4,2.2-6.8c0-2.1-2-6.5-8.2-6.5c-5,0-7.5,3-7.6,8.8c0.2,2.5-1.7,4.6-4.1,4.9l-0.5,0c-2.6,0-4.8-2.1-4.8-4.8v-0.2
				c0-5.7,1.7-10.2,5-13.4C28.2,2,34,1.8,35.6,1.8c10.6,0,17.7,6.2,17.7,15.5c0,4.4-0.4,9.1-5.4,14.1c-1.2,1.2-2.3,2.3-3.4,3.2
				c-1.9,1.8-4.6,4.4-4.7,5.3c-0.1,5.9,0,9.1,0,10.2l0,0.2C39.8,52.7,37.7,54.8,35.1,54.8z M36.2,50.2"/>
		</g>
	</g>
</g>
</svg>
