<?xml version="1.0" encoding="utf-8"?>
<!-- Generator: Adobe Illustrator 22.0.1, SVG Export Plug-In . SVG Version: 6.00 Build 0)  -->
<svg version="1.1" id="emoji" xmlns="http://www.w3.org/2000/svg" xmlns:xlink="http://www.w3.org/1999/xlink" x="0px" y="0px"
	 viewBox="0 0 72 72" style="enable-background:new 0 0 72 72;" xml:space="preserve">
<style type="text/css">
	.st0{fill:#3F3F3F;}
	.st1{fill:#FF9F19;}
	.st2{fill:none;stroke:#000000;stroke-width:2.303;stroke-linecap:round;stroke-linejoin:round;stroke-miterlimit:10;}
	.st3{fill:none;stroke:#000000;stroke-width:2.303;stroke-linecap:round;stroke-linejoin:round;}
</style>
<g id="color">
	<polyline class="st0" points="24.7,37.5 47.3,2.4 52.3,5.6 33.7,35.6 	"/>
	<polyline class="st0" points="16.3,57 12.4,62.6 5.7,67.6 8,59.4 12.4,53.1 	"/>
</g>
<g id="hair">
</g>
<g id="skin">
	<path class="st1" d="M8.9,58.2c-1.4-1.5-2.7-3.5-2.6-4.6l3.1-21.3c0-1,0.2-1.8,1.2-2.4l18.8-9.5c0.6-0.3-1.4-3.2,4.9-0.5"/>
	<path class="st1" d="M18.1,41.8l0.8-4.6c0.1-0.6,0.7-1.6,1.2-1.7l2.4-1"/>
	<path class="st1" d="M19.7,56.4c2.7,8.1,12.5,7.8,5.8-2.5"/>
	<path class="st1" d="M21.4,55c5.6,9.9,17.9,10,7.3-5"/>
	<path class="st1" d="M26.8,51.9C42.1,72.3,43,57,32.6,50.4"/>
	<path class="st1" d="M59.8,55.3c-15,3.2-17.2-3.9-24.4-5c-5.9-1.2-12.4,2.6-14.7,4.4c-5.1,4.9-11.8-1.8-5.5-6.6l8.4-7.7l9.5-4.5
		l9-11.9l21.5,11.5c6.5,6.5,6.5,17.1,0,23.6c-5.2,0.6-14.4,4.8-27.1,3.1"/>
	<polygon class="st1" points="38.4,44.5 13.5,44.5 23.4,36 24.5,37.3 33.7,35.6 41.3,22.3 45.4,24.5 	"/>
	<rect x="31.4" y="48" class="st1" width="24.7" height="13"/>
</g>
<g id="skin-shadow">
</g>
<g id="line">
	<path class="st2" d="M6.7,55.8l2.7-23.5c0-1,0.2-1.8,1.2-2.4l19.8-10"/>
	<path class="st2" d="M16.9,40.7l0.8-4.6c0.1-0.6,0.7-1.6,1.2-1.7l2.4-1"/>
	<polyline class="st2" points="24.5,36.4 47.3,2.4 52.3,5.6 33.3,34.5 	"/>
	<polyline class="st2" points="12.4,60.6 10,63.7 4.5,69.9 7.7,62 10,58.5 	"/>
	<path class="st2" d="M44.8,25.4c0,0,14.5,6.9,18.8,10.1c7.4,5.5,6.5,17.1,0,23.6c-5.2,0.6-9.4,2.3-21,2.3"/>
	<path class="st3" d="M27.9,59.6c0.7,3.7-5.1,5.5-5.9,0.2"/>
	<path class="st3" d="M33.6,59.4c0.7,3.7-4.9,4.8-5.7,0.2"/>
	<path class="st3" d="M39.4,59c0.8,3.7-5,4.2-5.8,0.5"/>
	<line class="st2" x1="39.4" y1="59" x2="38.7" y2="55.8"/>
	<line class="st2" x1="33.6" y1="59.4" x2="32.5" y2="54.2"/>
	<line class="st2" x1="27.9" y1="59.6" x2="27.2" y2="56.1"/>
	<line class="st2" x1="22.1" y1="59.7" x2="22" y2="59"/>
	<path class="st2" d="M59.8,55.3c-15,3.2-17.2-3.9-24.4-5c-5.9-1.2-12.4,2.6-14.7,4.4c-5.1,4.9-11.8-1.8-5.5-6.6
		c0,0,5.8-5.4,8.4-6.6c2.5-1.2,11-2.4,11-2.4"/>
</g>
</svg>
